# xmcd
#
# Track frame offsets:
#	150
#	29963
#	50362
#	81476
#	104341
#	126791
#	163321
#
# Disc length: 2286 seconds
#
# Revision: 1
# Processed by: cddbd v1.5.1PL2 Copyright (c) Steve Scherf et al.
# Submitted via: EasyCDDAExtractor 9.0.0.1
#
DISCID=6308ec07
DTITLE=Whitesnake - Hammersmith Odeon London 28-10-79 Disc 2
DYEAR=1979
DGENRE=Hard Rock
TTITLE0=Love Hunter
TTITLE1=Lie Down
TTITLE2=Take Me With You 
TTITLE3=Medicine Man
TTITLE4=Breakdown
TTITLE5=Rock Me Baby
TTITLE6=We Wish You Well
EXTD=
EXTT0=
EXTT1=
EXTT2=
EXTT3=
EXTT4=
EXTT5=
EXTT6=
PLAYORDER=
